PathFileType	4	(X/Y/Z)	C:/Users/opensim2020/Desktop/walking_exp_matlab/subject02_walking05_straight_04.trc																																																																																																																												
DataRate	CameraRate	NumFrames	NumMarkers	Units	OrigDataRate	OrigDataStartFrame	OrigNumFrames																																																																																																																								
100	100	5	42	mm	100	2873	220																																																																																																																								
Frame#	Time	LFHD			RFHD			LBHD			RBHD			C7			T10			CLAV			STRN			RBAK			LSHO			LUPA			LELB			LFRM			LWRA			LWRB			LFIN			RSHO			RUPA			RELB			RFRM			RWRA			RWRB			RFIN			LASI			RASI			LPSI			RPSI			LTHI			LKNE			LTIB			LANK			LHEE			LTOE			RTHI			RKNE			RTIB			RANK			RHEE			RTOE			*39			*40			*41		
		X1	Y1	Z1	X2	Y2	Z2	X3	Y3	Z3	X4	Y4	Z4	X5	Y5	Z5	X6	Y6	Z6	X7	Y7	Z7	X8	Y8	Z8	X9	Y9	Z9	X10	Y10	Z10	X11	Y11	Z11	X12	Y12	Z12	X13	Y13	Z13	X14	Y14	Z14	X15	Y15	Z15	X16	Y16	Z16	X17	Y17	Z17	X18	Y18	Z18	X19	Y19	Z19	X20	Y20	Z20	X21	Y21	Z21	X22	Y22	Z22	X23	Y23	Z23	X24	Y24	Z24	X25	Y25	Z25	X26	Y26	Z26	X27	Y27	Z27	X28	Y28	Z28	X29	Y29	Z29	X30	Y30	Z30	X31	Y31	Z31	X32	Y32	Z32	X33	Y33	Z33	X34	Y34	Z34	X35	Y35	Z35	X36	Y36	Z36	X37	Y37	Z37	X38	Y38	Z38	X39	Y39	Z39	X40	Y40	Z40	X41	Y41	Z41	X42	Y42	Z42
																																																																																																																															
138	1.37	277.41705	1730.62024	-1562.42517	260.08038	1710.70483	-1420.32703	139.23425	1674.62549	-1585.09949	110.31232	1655.82385	-1444.84619	63.57273	1530.33997	-1508.15918	11.96425	1250.71753	-1500.92859	200.29391	1458.55664	-1521.27173	253.23444	1289.04724	-1509.71204	5.99717	1353.33813	-1442.1593	129.44209	1499.39832	-1689.00073	148.6031	1301.77295	-1779.16541	180.90857	1165.38501	-1800.01135	233.92865	1044.02771	-1813.21814	326.20468	944.67657	-1779.41223	284.27267	931.95642	-1815.14551	325.79254	881.23163	-1820.91504	144.13876	1498.10645	-1323.59167	117.18095	1307.78821	-1237.60657	133.98178	1161.81128	-1217.18713	171.97313	1047.11377	-1199.95911	230.79405	925.44269	-1222.02612	186.6187	918.43756	-1186.12451	229.04567	858.52905	-1187.40149	247.1875	993.26117	-1638.20947	253.54803	984.06238	-1383.42664	39.22924	1034.64087	-1551.67456	37.00793	1033.25195	-1436.27295	176.93459	678.7616	-1674.30542	138.3055	478.11295	-1637.05164	80.51028	291.21643	-1630.85522	84.16796	69.5146	-1584.66772	47.17219	43.21432	-1534.16003	241.30595	31.58042	-1590.21631	228.50867	685.12122	-1285.70288	270.20584	487.47287	-1299.15173	164.563	335.46246	-1308.28882	84.41851	162.40543	-1349.51599	51.85851	116.9706	-1416.47607	186.39221	54.80189	-1292.75989	176.77225	1809.24377	-1481.45374	-2845.81689	1033.9032	3357.26099	NaN	NaN	NaN
139	1.38	287.23117	1729.92944	-1562.49219	269.6875	1709.86963	-1420.45825	149.0034	1674.46167	-1585.47449	119.93636	1655.54907	-1445.29688	72.75364	1530.2832	-1508.87317	20.40483	1250.76672	-1500.88208	209.26907	1458.13208	-1521.82764	261.70468	1288.48022	-1510.9574	14.45687	1353.52527	-1443.14343	139.05736	1499.83667	-1689.57214	160.65683	1303.26746	-1780.55188	195.4855	1167.22693	-1801.92505	251.23524	1046.78064	-1814.53088	345.01663	949.32898	-1780.10645	303.77145	935.96161	-1816.35889	346.45175	886.00537	-1821.95898	153.05768	1497.25073	-1323.93506	123.04107	1307.18237	-1238.77673	139.02925	1161.15686	-1217.92407	176.43976	1046.31287	-1199.89978	233.43916	923.9101	-1221.60156	189.10492	917.18921	-1186.17859	231.10365	857.34045	-1186.72424	254.19565	992.50726	-1640.34216	262.89447	983.8764	-1385.12329	46.76155	1034.36548	-1550.42126	45.82162	1033.70654	-1435.0271	182.49638	678.37469	-1674.11133	142.35463	477.92029	-1636.61609	82.85533	291.59604	-1630.42786	84.64114	69.69024	-1584.25208	47.3665	43.33705	-1533.91162	241.44756	31.56711	-1590.3844	240.42889	685.86145	-1286.16162	284.92462	488.11224	-1300.57654	185.66472	331.28229	-1308.69043	113.02332	154.69116	-1348.92542	82.09035	107.46278	-1415.51965	220.5383	52.49839	-1293.29492	186.85005	1808.85034	-1481.67114	-2845.15479	1033.73621	3360.35693	NaN	NaN	NaN
140	1.39	297.34268	1729.1217	-1562.27795	279.36691	1708.98962	-1420.48499	158.75633	1674.20935	-1585.72986	129.45377	1655.12512	-1445.60706	81.9019	1530.11511	-1509.57666	28.81538	1250.78711	-1500.7312	218.38353	1457.74634	-1522.40662	270.16516	1287.78027	-1512.1167	22.69596	1353.58667	-1444.09619	148.67223	1500.09534	-1689.97656	172.91	1304.49133	-1781.672	209.87369	1168.98853	-1803.65527	268.05707	1049.74121	-1816.24438	363.70889	953.87537	-1780.53015	322.93274	940.01129	-1817.4585	366.72797	890.90393	-1822.5592	161.74197	1496.37146	-1324.44702	128.97096	1306.64539	-1240.10864	144.08426	1160.51086	-1218.66394	180.40337	1045.25854	-1200.15845	236.46667	922.4682	-1221.05945	191.41547	916.09613	-1186.44629	233.23997	856.10773	-1186.00317	261.28464	991.70129	-1642.41968	272.09308	983.59448	-1386.4801	54.43692	1033.95435	-1549.16858	54.59247	1033.99524	-1433.87207	187.94765	677.77393	-1673.79077	146.35718	477.68576	-1636.12476	85.25864	291.94623	-1629.8551	84.97422	70.00183	-1583.89771	47.61799	43.68811	-1533.49219	241.66403	31.5019	-1590.50903	251.94131	686.52563	-1286.71118	299.20282	488.47287	-1302.01685	206.62982	327.27487	-1309.1875	141.85368	147.3436	-1348.44507	112.08607	98.68894	-1414.66748	254.82542	50.80594	-1293.85901	196.8972	1808.26611	-1481.61206	-2845.17285	1033.72095	3360.2981	NaN	NaN	NaN
141	1.4	307.35992	1728.34399	-1562.27136	289.11005	1707.95544	-1420.54041	168.52913	1673.83704	-1586.00195	139.0816	1654.58765	-1445.94165	91.08296	1529.92493	-1510.1405	37.2855	1250.69983	-1500.37048	227.36275	1457.06445	-1522.82886	278.56219	1286.95007	-1513.12537	31.25671	1353.31091	-1444.32312	158.24603	1500.20093	-1690.3501	184.89575	1305.60791	-1782.6731	224.05302	1170.58545	-1805.28345	284.6669	1052.49304	-1817.60254	381.76785	958.75574	-1781.34412	341.91779	943.71631	-1818.17126	386.5965	895.70453	-1823.2793	170.93466	1495.32666	-1324.51709	135.03304	1306.17505	-1241.14966	149.42328	1159.85315	-1219.25745	184.00471	1044.27234	-1200.56018	239.51639	920.99359	-1220.60303	194.01537	915.04718	-1186.62903	235.401	854.82922	-1185.32727	267.81158	990.42926	-1643.60132	281.30658	983.23401	-1387.47144	62.23427	1033.50232	-1547.97009	63.40044	1034.00232	-1432.82458	193.32253	677.2149	-1673.48926	150.38773	477.47064	-1635.64502	87.37189	292.36963	-1629.47485	85.35036	70.29382	-1583.54858	47.9009	44.1059	-1533.0426	241.77541	31.46566	-1590.6571	263.25806	687.04926	-1287.23425	313.14691	488.8233	-1303.52161	227.5515	323.20474	-1309.44092	170.78217	140.4001	-1347.84302	142.35988	89.94202	-1413.48401	289.17813	49.8887	-1294.44043	206.94864	1807.59583	-1481.5647	-2845.05884	1033.92651	3360.17822	NaN	NaN	NaN
142	1.41	317.03485	1727.44666	-1562.36084	298.83743	1706.84912	-1420.47388	178.31616	1673.36108	-1586.14282	148.71509	1653.95825	-1446.08447	100.24319	1529.59875	-1510.59326	45.722	1250.49707	-1499.89441	236.39804	1456.36963	-1523.14856	287.00085	1286.03735	-1514.01709	40.20757	1353.00378	-1444.45154	167.79695	1500.12854	-1690.55042	196.78697	1306.53699	-1783.56567	237.96996	1172.14868	-1806.80298	301.009	1055.23792	-1818.62463	399.54092	963.37317	-1781.77026	360.23447	947.69733	-1819.21289	406.09311	900.35004	-1823.53088	179.47206	1494.52734	-1325.08447	142.35565	1305.49768	-1241.50391	154.79655	1159.24304	-1219.79089	188.05673	1043.10803	-1200.63757	242.75279	919.61383	-1219.99841	196.75507	914.0083	-1186.64331	237.76018	853.62354	-1184.72705	274.94052	989.31628	-1644.73364	290.444	982.85529	-1388.1698	70.20265	1032.92676	-1546.8302	72.15202	1033.6864	-1431.9209	198.62653	676.71582	-1673.24744	154.34271	477.24774	-1635.19202	89.82454	292.4852	-1628.79077	85.58205	70.77266	-1583.31458	48.10271	44.64847	-1532.7085	241.976	31.45562	-1590.78162	274.61298	687.43188	-1287.97485	326.49255	488.86966	-1305.17395	248.30707	319.33936	-1310.03735	199.53911	133.70244	-1347.38611	173.49829	81.79161	-1412.41602	323.29123	49.52563	-1294.9928	216.99689	1806.79834	-1481.42566	-2845.07104	1033.82495	3360.24023	NaN	NaN	NaN
